<?xml version="1.0" encoding="utf-8"?>
<!-- Generator: Adobe Illustrator 19.0.0, SVG Export Plug-In . SVG Version: 6.00 Build 0)  -->
<svg version="1.1" id="Layer_1" xmlns="http://www.w3.org/2000/svg" xmlns:xlink="http://www.w3.org/1999/xlink" x="0px" y="0px"
	 viewBox="0 0 31.8 31.8" style="enable-background:new 0 0 31.8 31.8;" xml:space="preserve">
<style type="text/css">
	.st0{fill:#742721;}
</style>
<g id="XMLID_2_">
	<path id="XMLID_44_" class="st0" d="M21.9,14.5c-0.1,0-0.2,0-0.3,0c-0.1-0.5-0.6-0.9-1.2-0.9H10.3c-0.7,0-1.2,0.5-1.2,1.2v4.2
		c0,1.2,0.6,2.5,1.5,3.3v0.3c0,0.7,0.5,1.2,1.2,1.2h7.1c0.7,0,1.2-0.5,1.2-1.2v-0.3c0.6-0.5,1-1.1,1.2-1.8c0.2,0,0.4,0.1,0.5,0.1
		c1.5,0,2.7-1.2,2.7-2.7v-0.6C24.5,15.7,23.3,14.5,21.9,14.5z M21.6,17.1c0-0.2,0.1-0.3,0.3-0.3s0.3,0.1,0.3,0.3v0.6
		c0,0.2-0.1,0.3-0.3,0.3s-0.3-0.1-0.3-0.3V17.1z M21.5,19.2c0.1,0,0.2,0,0.3,0c0.8,0,1.5-0.7,1.5-1.5v-0.6c0-0.8-0.7-1.5-1.5-1.5
		c-0.1,0-0.2,0-0.3,0v0c0.1,0,0.2,0,0.3,0c0.8,0,1.5,0.7,1.5,1.5v0.6c0,0.8-0.7,1.5-1.5,1.5C21.7,19.2,21.6,19.2,21.5,19.2
		C21.5,19.2,21.5,19.2,21.5,19.2z M18.9,22.5L18.9,22.5l-7.1,0v0H18.9z M20.4,14.7v4.2c0,0.9-0.4,1.8-1.1,2.4h-7.9
		c-0.7-0.6-1.1-1.5-1.1-2.4l0-4.2L20.4,14.7C20.4,14.7,20.4,14.7,20.4,14.7z"/>
	<path id="XMLID_101_" class="st0" d="M14.9,9.9c0.3,0.3,0.4,0.4,0.4,0.7c0,0.3-0.1,0.4-0.4,0.7c-0.3,0.3-0.8,0.7-0.8,1.5
		c0,0.3,0.3,0.6,0.6,0.6c0.3,0,0.6-0.3,0.6-0.6c0-0.3,0.1-0.4,0.4-0.7c0.3-0.3,0.8-0.7,0.8-1.5c0-0.8-0.5-1.2-0.8-1.5
		c-0.3-0.2-0.4-0.4-0.4-0.7c0-0.3,0.1-0.4,0.4-0.7c0.3-0.3,0.8-0.7,0.8-1.5c0-0.3-0.3-0.6-0.6-0.6s-0.6,0.3-0.6,0.6
		c0,0.3-0.1,0.4-0.4,0.7c-0.3,0.3-0.8,0.7-0.8,1.5C14.1,9.2,14.6,9.7,14.9,9.9z"/>
	<path id="XMLID_102_" class="st0" d="M17.2,9.9c0.3,0.3,0.4,0.4,0.4,0.7c0,0.3-0.1,0.4-0.4,0.7c-0.3,0.3-0.8,0.7-0.8,1.5
		c0,0.3,0.3,0.6,0.6,0.6s0.6-0.3,0.6-0.6c0-0.3,0.1-0.4,0.4-0.7c0.3-0.3,0.8-0.7,0.8-1.5c0-0.8-0.5-1.2-0.8-1.5
		c-0.3-0.2-0.4-0.4-0.4-0.7c0-0.3-0.3-0.6-0.6-0.6s-0.6,0.3-0.6,0.6C16.4,9.2,16.9,9.6,17.2,9.9z"/>
	<path id="XMLID_103_" class="st0" d="M12,12.8c0,0.3,0.3,0.6,0.6,0.6s0.6-0.3,0.6-0.6c0-0.3,0.1-0.4,0.4-0.7
		c0.3-0.3,0.8-0.7,0.8-1.5c0-0.8-0.5-1.2-0.8-1.5c-0.3-0.3-0.4-0.4-0.4-0.7c0-0.3-0.3-0.6-0.6-0.6S12,8.1,12,8.4
		c0,0.8,0.5,1.2,0.8,1.5c0.3,0.2,0.4,0.4,0.4,0.7c0,0.3-0.1,0.4-0.4,0.7C12.5,11.5,12,12,12,12.8z"/>
</g>
</svg>
