<?xml version="1.0" encoding="UTF-8" standalone="no"?>
<!-- Svg Vector Icons : http://www.onlinewebfonts.com/icon -->

<svg
   xmlns:dc="http://purl.org/dc/elements/1.1/"
   xmlns:cc="http://creativecommons.org/ns#"
   xmlns:rdf="http://www.w3.org/1999/02/22-rdf-syntax-ns#"
   xmlns:svg="http://www.w3.org/2000/svg"
   xmlns="http://www.w3.org/2000/svg"
   xmlns:sodipodi="http://sodipodi.sourceforge.net/DTD/sodipodi-0.dtd"
   xmlns:inkscape="http://www.inkscape.org/namespaces/inkscape"
   version="1.1"
   x="0px"
   y="0px"
   viewBox="0 0 1000 1000"
   enable-background="new 0 0 1000 1000"
   xml:space="preserve"
   id="svg5857"
   sodipodi:docname="icon_company.svg"
   inkscape:version="0.92.2 5c3e80d, 2017-08-06"><defs
     id="defs5861" /><sodipodi:namedview
     pagecolor="#7F7F7F"
     bordercolor="#666666"
     borderopacity="1"
     objecttolerance="10"
     gridtolerance="10"
     guidetolerance="10"
     inkscape:pageopacity="0"
     inkscape:pageshadow="2"
     inkscape:window-width="1920"
     inkscape:window-height="1058"
     id="namedview5859"
     showgrid="false"
     inkscape:zoom="0.236"
     inkscape:cx="500"
     inkscape:cy="500"
     inkscape:window-x="0"
     inkscape:window-y="22"
     inkscape:window-maximized="1"
     inkscape:current-layer="svg5857" /><metadata
     id="metadata5837"> Svg Vector Icons : http://www.onlinewebfonts.com/icon <rdf:RDF><cc:Work
     rdf:about=""><dc:format>image/svg+xml</dc:format><dc:type
       rdf:resource="http://purl.org/dc/dcmitype/StillImage" /><dc:title></dc:title></cc:Work></rdf:RDF></metadata><g
     id="g5855"
     style="fill:#7F7F7F"><path
       d="M238.6,478.2h156.7v36.7H238.6V478.2L238.6,478.2z"
       id="path5839"
       style="fill:#7F7F7F" /><path
       d="M238.6,579h156.7v36.8H238.6V579z"
       id="path5841"
       style="fill:#7F7F7F" /><path
       d="M238.6,682.9h156.7v36.8H238.6V682.9z"
       id="path5843"
       style="fill:#7F7F7F" /><path
       d="M238.6,786.9h156.7v36.8H238.6V786.9z"
       id="path5845"
       style="fill:#7F7F7F" /><path
       d="M508.8,278.3h250.5v36.8H508.8V278.3L508.8,278.3z"
       id="path5847"
       style="fill:#7F7F7F" /><path
       d="M508.8,399.2h250.5v36.8H508.8V399.2L508.8,399.2z"
       id="path5849"
       style="fill:#7F7F7F" /><path
       d="M508.8,520h250.5v36.8H508.8V520L508.8,520z"
       id="path5851"
       style="fill:#7F7F7F" /><path
       d="M835.5,894.7v-753H683.1V68.6H432.7v73.1v36.8v118.9H212.6v73h-48v524.3H10v36.8h154.6h268.1h36.8h78.7h162h125.4H990v-36.8H835.5z M469.5,105.3h176.9v36.3H469.5V105.3z M249.3,334h176.9v36.3H249.3V334z M201.3,894.7V407.1h11.3h220.1v487.6H201.3z M584.9,894.7V785.3h88.5v109.4H584.9z M710.1,894.7V748.6h-162v146.1h-78.7V370.3V178.4h213.6h115.6v716.3H710.1z"
       id="path5853"
       style="fill:#7F7F7F" /></g></svg>
