<?xml version="1.0" encoding="utf-8"?>
<!-- Generator: Adobe Illustrator 19.0.0, SVG Export Plug-In . SVG Version: 6.00 Build 0)  -->
<svg version="1.1" id="Layer_1" xmlns="http://www.w3.org/2000/svg" xmlns:xlink="http://www.w3.org/1999/xlink" x="0px" y="0px"
	 viewBox="0 0 31.8 31.8" style="enable-background:new 0 0 31.8 31.8;" xml:space="preserve">
<style type="text/css">
	.st0{fill:#742721;}
</style>
<g id="XMLID_1_">
	<path id="XMLID_52_" class="st0" d="M22.8,8.2c0-0.3,0-0.6-0.3-0.9c-0.2-0.3-0.6-0.4-0.9-0.4h-3.5l0.3-0.4c0.1-0.1,0.1-0.3,0.1-0.5
		c0-0.2-0.1-0.3-0.2-0.3c-0.1-0.1-0.3-0.1-0.5-0.1c-0.2,0-0.3,0.1-0.3,0.2L16.6,7h-1.4l-0.5-1c-0.1-0.1-0.2-0.2-0.3-0.3
		c-0.2-0.1-0.3-0.1-0.5,0c-0.1,0.1-0.2,0.2-0.3,0.3c-0.1,0.2-0.1,0.3,0,0.5l0.2,0.5h-3.7c-0.7,0-1.3,0.6-1.3,1.3v16.7
		c0,0.7,0.6,1.3,1.3,1.3h11.4c0.7,0,1.3-0.6,1.3-1.3L22.8,8.2z M15.1,18.5c0.3-0.1,0.5-0.4,0.5-0.8V17l-0.4-0.1
		c-0.4-0.2-0.7-0.5-0.9-1.1l-0.1-0.3l-0.3-0.1c0,0-0.1,0-0.1-0.1v-0.3c0,0,0-0.1,0-0.1l0.3-0.2l0-0.3c0-0.3,0.1-0.6,0.2-0.8
		c0-0.1,0.1-0.2,0.1-0.2l0-0.1c0.1-0.1,0.1-0.2,0.1-0.4c0.4,0.1,0.8,0.2,1.1,0.2H16c1.1,0,1.6,0.4,1.7,1.3l0.1,0.3l0.3,0.1
		c0,0,0,0,0,0.1v0.3c0,0,0,0.1-0.1,0.1l-0.3,0.1l-0.1,0.3c-0.1,0.5-0.4,0.9-0.9,1.1L16.4,17v0.8c0,0.3,0.2,0.6,0.5,0.8l1,0.5H14
		L15.1,18.5z M17.7,17.6c0.4-0.3,0.7-0.8,0.9-1.3c0.4-0.2,0.6-0.6,0.6-1v-0.3c0-0.3-0.1-0.7-0.4-0.9c-0.2-1-0.8-2-2.9-2l-0.2,0
		c-0.1,0-0.5,0-0.9-0.2c-0.1,0-0.2-0.1-0.2-0.2l0-0.1c-0.2-0.2-0.5-0.3-0.7-0.2c-0.2,0.1-0.4,0.4-0.4,0.6c0,0.1,0,0.3,0.1,0.4l0,0.1
		c0,0.1,0.1,0.2,0.1,0.2c0,0,0,0-0.1,0.1c0,0.1-0.1,0.2-0.1,0.3c-0.1,0.3-0.2,0.6-0.3,0.9c-0.3,0.3-0.4,0.6-0.4,0.9v0.3
		c0,0.4,0.2,0.8,0.6,1c0.2,0.6,0.5,1,0.9,1.3l-1,0.5c-0.4,0.2-0.6,0.5-0.8,0.9h-2.3V8.2c0,0,0.1-0.1,0.1-0.1h4.3l0.2,0.4
		c-0.3,0.3-0.4,0.7-0.4,1.1c0,0.9,0.7,1.6,1.6,1.6s1.6-0.7,1.6-1.6c0-0.6-0.4-1.2-0.9-1.4h5c0,0,0.1,0.1,0.1,0.1V19h-2.3
		c-0.1-0.4-0.5-0.7-0.8-0.9L17.7,17.6z M21.7,25H10.3c0,0-0.1-0.1-0.1-0.1v-4.8h11.6L21.7,25C21.7,24.9,21.7,25,21.7,25z"/>
	<path id="XMLID_55_" class="st0" d="M19,22h-6c-0.3,0-0.6,0.3-0.6,0.6c0,0.3,0.3,0.6,0.6,0.6h6c0.3,0,0.6-0.3,0.6-0.6
		C19.6,22.3,19.3,22,19,22z"/>
	<path id="XMLID_70_" class="st0" d="M14.3,21.8h3.3c0.3,0,0.6-0.3,0.6-0.6c0-0.3-0.3-0.6-0.6-0.6h-3.3c-0.3,0-0.6,0.3-0.6,0.6
		C13.7,21.5,14,21.8,14.3,21.8z"/>
	<path id="XMLID_71_" class="st0" d="M13.3,23.3h-0.3c-0.3,0-0.6,0.3-0.6,0.6c0,0.3,0.3,0.6,0.6,0.6h0.3c0.3,0,0.6-0.3,0.6-0.6
		C13.9,23.6,13.6,23.3,13.3,23.3z"/>
	<path id="XMLID_72_" class="st0" d="M15.3,23.3h-0.7c-0.3,0-0.6,0.3-0.6,0.6c0,0.3,0.3,0.6,0.6,0.6h0.7c0.3,0,0.6-0.3,0.6-0.6
		C15.9,23.6,15.6,23.3,15.3,23.3z"/>
	<path id="XMLID_75_" class="st0" d="M17,23.3h-0.3c-0.3,0-0.6,0.3-0.6,0.6c0,0.3,0.3,0.6,0.6,0.6H17c0.3,0,0.6-0.3,0.6-0.6
		C17.5,23.6,17.3,23.3,17,23.3z"/>
	<path id="XMLID_76_" class="st0" d="M19,23.3h-0.7c-0.3,0-0.6,0.3-0.6,0.6c0,0.3,0.3,0.6,0.6,0.6H19c0.3,0,0.6-0.3,0.6-0.6
		C19.6,23.6,19.3,23.3,19,23.3z"/>
</g>
</svg>
