<?xml version="1.0" encoding="utf-8"?>
<!-- Generator: Adobe Illustrator 19.0.0, SVG Export Plug-In . SVG Version: 6.00 Build 0)  -->
<svg version="1.1" id="Layer_1" xmlns="http://www.w3.org/2000/svg" xmlns:xlink="http://www.w3.org/1999/xlink" x="0px" y="0px"
	 viewBox="0 0 177.6 17.4" style="enable-background:new 0 0 177.6 17.4;" xml:space="preserve">
<style type="text/css">
	.st0{fill:#E94C3A;}
	.st1{fill:#FFFFFF;}
</style>
<g id="XMLID_14_">
	<path id="XMLID_15_" class="st0" d="M1.8,12.2H0.5V9.4h1.8l0.3-1.9H1.1V4.8h2l0.4-2.2h2.5L5.5,4.8h2.2l0.4-2.2h2.5l-0.4,2.2h1.3
		v2.8H9.7L9.4,9.4h1.6v2.8h-2l-0.4,2.3H6l0.4-2.3H4.3l-0.4,2.3H1.4L1.8,12.2z M7,9.5l0.3-2H5l-0.4,2H7z"/>
	<path id="XMLID_18_" class="st1" d="M13.1,2.5h3.3v9h5.8v2.9h-9.1V2.5z"/>
	<path id="XMLID_20_" class="st1" d="M27.6,2.5h3.2l5.1,12h-3.5l-0.9-2.1h-4.6L26,14.4h-3.5L27.6,2.5z M30.5,9.8l-1.3-3.4l-1.3,3.4
		H30.5z"/>
	<path id="XMLID_23_" class="st1" d="M37,2.5h5.6c0.9,0,1.7,0.1,2.3,0.3c0.6,0.2,1.2,0.5,1.5,1c0.7,0.7,1.1,1.6,1.1,2.8v0
		c0,0.9-0.2,1.7-0.7,2.3s-1,1.1-1.8,1.4l2.8,4.1h-3.8l-2.4-3.6h0h-1.4v3.6H37V2.5z M42.5,8.3c0.6,0,1-0.1,1.3-0.4
		c0.3-0.3,0.5-0.6,0.5-1v0c0-0.5-0.2-0.8-0.5-1.1s-0.8-0.3-1.3-0.3h-2.2v2.9H42.5z"/>
	<path id="XMLID_26_" class="st1" d="M53.4,2.5h3.2l5.1,12h-3.5l-0.9-2.1h-4.6l-0.9,2.1h-3.5L53.4,2.5z M56.3,9.8l-1.3-3.4l-1.3,3.4
		H56.3z"/>
	<path id="XMLID_29_" class="st1" d="M68.5,14.7c-0.9,0-1.6-0.2-2.4-0.5s-1.4-0.7-1.9-1.3s-1-1.2-1.3-2c-0.3-0.8-0.5-1.6-0.5-2.5v0
		c0-0.9,0.2-1.7,0.5-2.4c0.3-0.8,0.8-1.4,1.3-2c0.6-0.6,1.2-1,2-1.3c0.8-0.3,1.6-0.5,2.5-0.5c0.6,0,1.2,0.1,1.7,0.2
		c0.5,0.1,1,0.3,1.4,0.5c0.4,0.2,0.8,0.5,1.1,0.8c0.3,0.3,0.6,0.6,0.9,1l-2.5,1.9c-0.3-0.4-0.7-0.8-1.1-1c-0.4-0.2-0.9-0.4-1.5-0.4
		c-0.4,0-0.8,0.1-1.1,0.2c-0.3,0.2-0.6,0.4-0.9,0.7s-0.4,0.6-0.6,1S65.8,8,65.8,8.5v0c0,0.4,0.1,0.9,0.2,1.3c0.1,0.4,0.3,0.7,0.6,1
		s0.5,0.5,0.9,0.7c0.3,0.2,0.7,0.2,1.1,0.2c0.3,0,0.6,0,0.8-0.1c0.3-0.1,0.5-0.2,0.7-0.3c0.2-0.1,0.4-0.3,0.6-0.5
		c0.2-0.2,0.4-0.4,0.6-0.6l2.5,1.8c-0.3,0.4-0.6,0.7-0.9,1.1c-0.3,0.3-0.7,0.6-1.1,0.9c-0.4,0.2-0.9,0.4-1.4,0.6
		C69.8,14.6,69.2,14.7,68.5,14.7z"/>
	<path id="XMLID_31_" class="st1" d="M81.2,14.7c-0.9,0-1.8-0.2-2.6-0.5c-0.8-0.3-1.5-0.8-2-1.3c-0.6-0.6-1-1.2-1.3-2
		c-0.3-0.7-0.5-1.5-0.5-2.4v0c0-0.8,0.2-1.7,0.5-2.4c0.3-0.8,0.8-1.4,1.4-2s1.3-1,2-1.3c0.8-0.3,1.6-0.5,2.5-0.5
		c0.9,0,1.8,0.2,2.6,0.5c0.8,0.3,1.5,0.8,2,1.3s1,1.2,1.3,2s0.5,1.5,0.5,2.4v0c0,0.9-0.2,1.7-0.5,2.4s-0.8,1.4-1.4,2s-1.3,1-2,1.3
		S82.1,14.7,81.2,14.7z M81.2,11.7c0.5,0,0.9-0.1,1.2-0.3c0.4-0.2,0.7-0.4,1-0.7c0.3-0.3,0.5-0.6,0.6-1c0.1-0.4,0.2-0.8,0.2-1.2v0
		c0-0.4-0.1-0.8-0.2-1.2s-0.4-0.7-0.6-1s-0.6-0.5-1-0.7s-0.8-0.3-1.2-0.3c-0.5,0-0.9,0.1-1.2,0.3c-0.4,0.2-0.7,0.4-1,0.7
		c-0.3,0.3-0.5,0.6-0.6,1S78.1,8,78.1,8.5v0c0,0.4,0.1,0.8,0.2,1.2c0.1,0.4,0.4,0.7,0.6,1c0.3,0.3,0.6,0.5,1,0.7
		C80.3,11.6,80.7,11.7,81.2,11.7z"/>
	<path id="XMLID_34_" class="st1" d="M89.3,2.5h3.1l4.9,6.3V2.5h3.2v11.9h-2.9l-5.1-6.5v6.5h-3.2V2.5z"/>
	<path id="XMLID_37_" class="st1" d="M102.7,2.5h9.5v2.9H106v2h5.6v2.8H106v4.3h-3.3V2.5z"/>
	<path id="XMLID_39_" class="st0" d="M113.7,2.5h6.1c0.7,0,1.4,0.1,1.9,0.3c0.5,0.2,1,0.4,1.3,0.8c0.2,0.2,0.4,0.5,0.6,0.8
		c0.1,0.3,0.2,0.7,0.2,1.1v0c0,0.7-0.2,1.2-0.5,1.7c-0.3,0.4-0.8,0.8-1.3,1c0.7,0.2,1.3,0.6,1.7,1c0.4,0.4,0.6,1.1,0.6,1.9v0
		c0,1-0.4,1.8-1.2,2.4c-0.8,0.6-1.9,0.9-3.3,0.9h-6.1V2.5z M119,7.3c0.5,0,0.9-0.1,1.2-0.3c0.3-0.2,0.4-0.4,0.4-0.8v0
		c0-0.3-0.1-0.6-0.4-0.8c-0.2-0.2-0.6-0.3-1.1-0.3h-2.1v2.1H119z M119.4,11.8c0.5,0,0.9-0.1,1.2-0.3c0.3-0.2,0.4-0.5,0.4-0.8v0
		c0-0.3-0.1-0.6-0.4-0.8c-0.3-0.2-0.7-0.3-1.2-0.3h-2.5v2.2H119.4z"/>
	<path id="XMLID_43_" class="st0" d="M125.8,2.5h5.6c0.9,0,1.7,0.1,2.3,0.3c0.6,0.2,1.2,0.5,1.5,1c0.7,0.7,1.1,1.6,1.1,2.8v0
		c0,0.9-0.2,1.7-0.7,2.3c-0.4,0.6-1,1.1-1.8,1.4l2.8,4.1H133l-2.4-3.6h0h-1.4v3.6h-3.3V2.5z M131.3,8.3c0.6,0,1-0.1,1.3-0.4
		c0.3-0.3,0.5-0.6,0.5-1v0c0-0.5-0.2-0.8-0.5-1.1s-0.8-0.3-1.3-0.3h-2.2v2.9H131.3z"/>
	<path id="XMLID_46_" class="st0" d="M142.2,2.5h3.2l5.1,12h-3.5l-0.9-2.1h-4.6l-0.9,2.1h-3.5L142.2,2.5z M145.1,9.8l-1.3-3.4
		l-1.3,3.4H145.1z"/>
	<path id="XMLID_49_" class="st0" d="M156.2,14.7c-1.1,0-2.1-0.2-3-0.5c-1-0.3-1.8-0.8-2.5-1.5l1.8-2.2c1.2,1,2.5,1.4,3.9,1.4
		c0.4,0,0.8-0.1,1-0.2s0.3-0.3,0.3-0.6v0c0-0.1,0-0.2-0.1-0.3c-0.1-0.1-0.2-0.2-0.3-0.3c-0.2-0.1-0.4-0.2-0.6-0.3
		c-0.3-0.1-0.6-0.2-1-0.3c-0.6-0.1-1.2-0.3-1.8-0.5s-1-0.4-1.4-0.7s-0.7-0.6-1-1s-0.3-0.9-0.3-1.5v0c0-0.6,0.1-1.1,0.3-1.5
		c0.2-0.5,0.5-0.9,0.9-1.2c0.4-0.3,0.9-0.6,1.5-0.8c0.6-0.2,1.2-0.3,1.9-0.3c1,0,1.9,0.1,2.7,0.4s1.5,0.7,2.2,1.2l-1.6,2.3
		c-0.5-0.4-1.1-0.7-1.7-0.9c-0.6-0.2-1.1-0.3-1.7-0.3c-0.4,0-0.7,0.1-0.9,0.2c-0.2,0.1-0.3,0.3-0.3,0.5v0c0,0.1,0,0.3,0.1,0.4
		c0.1,0.1,0.2,0.2,0.3,0.3s0.4,0.2,0.6,0.3c0.3,0.1,0.6,0.2,1,0.3c0.7,0.1,1.3,0.3,1.8,0.5s1,0.4,1.4,0.7c0.4,0.3,0.7,0.6,0.9,1
		c0.2,0.4,0.3,0.9,0.3,1.4v0c0,0.6-0.1,1.2-0.3,1.6c-0.2,0.5-0.6,0.9-1,1.2c-0.4,0.3-0.9,0.6-1.5,0.8
		C157.6,14.6,157,14.7,156.2,14.7z"/>
	<path id="XMLID_51_" class="st0" d="M162.7,2.5h3.3v11.9h-3.3V2.5z"/>
	<path id="XMLID_53_" class="st0" d="M168.2,2.5h3.3v9h5.8v2.9h-9.1V2.5z"/>
</g>
</svg>
